<svg xmlns="http://www.w3.org/2000/svg" viewBox="0 0 189 227.147">
  <g transform="translate(-185 -150)">
    <path d="M23.144,221.26c-2,3.812-6.3,5.887-10.647,5.887A12.429,12.429,0,0,1,0,214.787V12.36A12.429,12.429,0,0,1,12.5,0H74.472a12.43,12.43,0,0,1,12.5,12.36c0,62.887-38.41,160.567-63.826,208.9" transform="translate(185 150)" fill="#09090b"/>
    <path d="M169.7,110.091H100.5a6.914,6.914,0,0,1-5.9-10.517l53.032-86.883a25.849,25.849,0,0,1,47.913,13.467V84.242A25.849,25.849,0,0,1,169.7,110.091" transform="translate(178.395 150)" fill="#09090b"/>
    <path d="M86.97,201.3V132.1c0-5.395,5.489-8.709,9.768-5.9l80.754,53.036A26.326,26.326,0,0,1,189,201.3c0,14.276-10.756,25.849-24.024,25.849H110.994c-13.268,0-24.024-11.573-24.024-25.849" transform="translate(185 150)" fill="#09090b"/>
  </g>
</svg>
